Coordinates
version=1
nRows=4
nColumns=107
inDegrees=yes

Units are S.I. units (second, meters, Newtons, ...)
If the header above contains a line with 'inDegrees', this indicates whether rotational values are in degrees (yes) or radians (no).

endheader
time	sternoclavicular_r2	sternoclavicular_r3	unrotscap_r3	unrotscap_r2	acromioclavicular_r2	acromioclavicular_r3	acromioclavicular_r1	unrothum_r1	unrothum_r3	unrothum_r2	elv_angle	shoulder_elv	shoulder1_r2	shoulder_rot	elbow_flexion	pro_sup	deviation	flexion	proximal_distal_r1	proximal_distal_r3	cmc_flexion	cmc_abduction	mp_flexion	ip_flexion	mcp2_flexion	mcp2_abduction	pm2_flexion	md2_flexion	mcp3_flexion	mcp3_abduction	pm3_flexion	md3_flexion	mcp4_flexion	mcp4_abduction	pm4_flexion	md4_flexion	mcp5_flexion	mcp5_abduction	pm5_flexion	md5_flexion	bicpt_tx	bicpt_ty	bicpt_tz	bicpt2_tx	bicpt2_ty	bicpt2_tz	ptpt_tx	ptpt_ty	ptpt_tz	FCUpt_tx	FCUpt_ty	FCUpt_tz	EDCpt_tx	EDCpt_ty	EDCpt_tz	APLpt_tx	APLpt_ty	APLpt_tz	FPLpt_tx	FPLpt_ty	FPLpt_tz	FPLpt2_tx	FPLpt2_ty	FPLpt2_tz	PEC1pt2_tx	PEC1pt2_ty	PEC1pt2_tz	PEC1pt3_tx	PEC1pt3_ty	PEC1pt3_tz	PEC2pt2_tx	PEC2pt2_ty	PEC2pt2_tz	PEC2pt3_tx	PEC2pt3_ty	PEC2pt3_tz	PEC3pt2_tx	PEC3pt2_ty	PEC3pt2_tz	PEC3pt3_tx	PEC3pt3_ty	PEC3pt3_tz	DELT2pt2a_tx	DELT2pt2a_ty	DELT2pt2a_tz	DELT2pt2_tx	DELT2pt2_ty	DELT2pt2_tz	LAT1pt2_tx	LAT1pt2_ty	LAT1pt2_tz	LAT1pt3_tx	LAT1pt3_ty	LAT1pt3_tz	LAT2pt2_tx	LAT2pt2_ty	LAT2pt2_tz	LAT2pt3_tx	LAT2pt3_ty	LAT2pt3_tz	LAT3pt2_tx	LAT3pt2_ty	LAT3pt2_tz	LAT3pt3_tx	LAT3pt3_ty	LAT3pt3_tz
      1.03333333	     -0.31078900	      0.13163555	     -0.13163555	      0.31078900	     -0.06292845	      0.50856561	      0.22859674	     -0.22859674	     -0.50856561	      0.06292845	    102.61410123	     73.58205941	     -1.79095393	    -42.08880619	     31.32868467	     84.72743552	      0.35005309	     -0.42475882	      0.37477393	     -0.21237941	     42.25206505	    -12.52680892	      8.18106986	      7.76802691	    108.59116026	     12.31726895	     80.09222117	     75.20121247	     99.06431132	      0.08262959	     83.75707847	     55.35347150	     91.94382733	    -13.53493434	     97.17036060	     42.74947095	     99.45611480	    -14.28828755	     91.60435734	      5.61017807	      0.00093626	     -0.03119075	     -0.00487838	      0.01436960	     -0.01871059	     -0.00129283	      0.00128960	     -0.06894808	     -0.00687525	      0.01259206	     -0.18228060	      0.00004935	     -0.01016727	      0.00350843	     -0.00071679	      0.00028350	      0.00011340	      0.00056699	      0.00036287	      0.00108862	      0.00061235	     -0.00000688	     -0.00006450	     -0.00007740	      0.00241186	      0.00846194	      0.00588657	     -0.00788964	      0.01904959	     -0.01806850	      0.00241186	      0.00846194	      0.00588657	      0.00053143	      0.01765971	     -0.00927952	      0.00384886	      0.00470558	      0.01572037	      0.00000000	      0.00723761	      0.00000000	     -0.00690854	     -0.03192646	     -0.00596452	      0.02325970	     -0.00118732	     -0.01416635	     -0.00085846	      0.01438939	     -0.00588657	      0.00237098	      0.02076651	     -0.01716916	     -0.00576393	      0.01246808	     -0.00527339	     -0.01201841	      0.02632605	     -0.02947373	     -0.02256518	      0.01393972	     -0.00707206	     -0.01496170	      0.03041394	     -0.03683194
      1.06666667	     -0.31073065	      0.13161084	     -0.13161084	      0.31073065	     -0.06291664	      0.50847012	      0.22855382	     -0.22855382	     -0.50847012	      0.06291664	    102.78655089	     73.56824303	     -1.79396374	    -42.56261863	     31.07872439	     84.44374183	      0.33794579	     -0.47065225	      0.36516050	     -0.23532612	     42.19637468	    -12.26370612	      7.95405931	      7.79336244	    109.23564129	     12.25613699	     80.04643327	     75.29762157	     99.34738725	     -0.07207529	     83.92518573	     56.06448713	     92.30841294	    -13.52316596	     97.67843078	     42.73095742	     99.82381904	    -14.28204051	     93.07768372	      5.59100746	      0.00092799	     -0.03116210	     -0.00487376	      0.01439801	     -0.01864269	     -0.00134085	      0.00131056	     -0.06893452	     -0.00685240	      0.01255960	     -0.18229009	      0.00004184	     -0.01013323	      0.00349299	     -0.00070790	      0.00029604	      0.00011842	      0.00059208	      0.00037893	      0.00113680	      0.00063945	     -0.00000699	     -0.00006573	     -0.00007887	      0.00241141	      0.00846036	      0.00588546	     -0.00788816	      0.01904602	     -0.01806511	      0.00241141	      0.00846036	      0.00588546	      0.00053133	      0.01765639	     -0.00927778	      0.00384833	      0.00470470	      0.01571901	      0.00000000	      0.00723488	      0.00000000	     -0.00690725	     -0.03192047	     -0.00596225	      0.02339156	     -0.00120476	     -0.01445501	     -0.00085830	      0.01438669	     -0.00588546	      0.00237053	      0.02076261	     -0.01716594	     -0.00576285	      0.01246574	     -0.00527240	     -0.01201616	      0.02632110	     -0.02946819	     -0.02256095	      0.01393711	     -0.00707073	     -0.01495889	      0.03040823	     -0.03682502
      1.10000000	     -0.31001929	      0.13130954	     -0.13130954	      0.31001929	     -0.06277260	      0.50730607	      0.22803059	     -0.22803059	     -0.50730607	      0.06277260	    102.87642985	     73.39982256	     -1.79553242	    -43.21599476	     31.41377014	     85.21958543	      0.33795398	     -0.45703375	      0.36516754	     -0.22851688	     42.07068508	    -12.08948520	      7.63990401	      7.23043072	    108.50586057	     12.27745531	     80.34246446	     75.58907927	     98.86590134	      0.05221764	     84.23558751	     57.32737212	     91.63959885	    -13.47525742	     98.53081817	     42.76141144	     99.37814605	    -14.27521756	     93.17637459	      5.59539857	      0.00093907	     -0.03120050	     -0.00487995	      0.01431988	     -0.01873370	     -0.00120926	      0.00125323	     -0.06897159	     -0.00691489	      0.01264844	     -0.18226408	      0.00006253	     -0.01022633	      0.00353528	     -0.00073232	      0.00029268	      0.00011707	      0.00058537	      0.00037464	      0.00112391	      0.00063220	     -0.00000723	     -0.00006847	     -0.00008216	      0.00240589	      0.00844099	      0.00587199	     -0.00787010	      0.01900241	     -0.01802375	      0.00240589	      0.00844099	      0.00587199	      0.00053011	      0.01761597	     -0.00925654	      0.00384178	      0.00469393	      0.01570232	      0.00000000	      0.00720158	      0.00000000	     -0.00689143	     -0.03184739	     -0.00593459	      0.02356857	     -0.00122887	     -0.01485578	     -0.00085633	      0.01435376	     -0.00587199	      0.00236511	      0.02071508	     -0.01712664	     -0.00574966	      0.01243720	     -0.00526033	     -0.01198865	      0.02626085	     -0.02940073	     -0.02250930	      0.01390520	     -0.00705454	     -0.01492464	      0.03033862	     -0.03674072
      1.13333333	     -0.31042294	      0.13148051	     -0.13148051	      0.31042294	     -0.06285433	      0.50796660	      0.22832749	     -0.22832749	     -0.50796660	      0.06285433	    102.91048436	     73.49539071	     -1.79612679	    -43.14308508	     31.24987744	     85.31043662	      0.33912341	     -0.45764940	      0.36610615	     -0.22882470	     42.00892967	    -12.06087843	      7.60164115	      7.21883696	    108.40764630	     12.28951524	     80.30749188	     75.58648456	     98.80996792	      0.06572547	     84.23393752	     57.33470429	     91.61259870	    -13.46833704	     98.53820623	     42.76657977	     99.36404087	    -14.27253151	     93.16685271	      5.59241738	      0.00093365	     -0.03118171	     -0.00487692	      0.01431064	     -0.01868918	     -0.00119379	      0.00124652	     -0.06897593	     -0.00692221	      0.01265886	     -0.18226102	      0.00006498	     -0.01023723	      0.00354025	     -0.00073521	      0.00029284	      0.00011714	      0.00058568	      0.00037484	      0.00112451	      0.00063254	     -0.00000735	     -0.00006981	     -0.00008377	      0.00240902	      0.00845198	      0.00587964	     -0.00788035	      0.01902716	     -0.01804722	      0.00240902	      0.00845198	      0.00587964	      0.00053080	      0.01763891	     -0.00926859	      0.00384550	      0.00470004	      0.01571180	      0.00000000	      0.00722047	      0.00000000	     -0.00690041	     -0.03188886	     -0.00595028	      0.02354908	     -0.00122617	     -0.01481091	     -0.00085745	      0.01437244	     -0.00587964	      0.00236819	      0.02074205	     -0.01714894	     -0.00575714	      0.01245340	     -0.00526717	     -0.01200426	      0.02629504	     -0.02943901	     -0.02253861	      0.01392331	     -0.00706373	     -0.01494408	      0.03037812	     -0.03678856
